<svg xmlns="http://www.w3.org/2000/svg" width="25.592" height="30.71" viewBox="0 0 25.592 30.71">
  <g id="Group_856" data-name="Group 856" transform="translate(-43)">
    <path id="Path_1126" data-name="Path 1126" d="M67.8,21.218a8.337,8.337,0,0,1-3.044-6.43v-3.5A8.847,8.847,0,0,0,57.075,2.61V1.254a1.28,1.28,0,0,0-2.559,0V2.61a8.846,8.846,0,0,0-7.678,8.681v3.5a8.346,8.346,0,0,1-3.056,6.44A2.174,2.174,0,0,0,43,22.9a2.22,2.22,0,0,0,2.239,2.2H66.352a2.22,2.22,0,0,0,2.239-2.2A2.183,2.183,0,0,0,67.8,21.218Z" transform="translate(0 0)" fill="#fff"/>
    <path id="Path_1127" data-name="Path 1127" d="M183.114,452.214A5.276,5.276,0,0,0,188.275,448H177.953A5.277,5.277,0,0,0,183.114,452.214Z" transform="translate(-127.318 -421.504)" fill="#fff"/>
  </g>
</svg>
