<svg id="dashboard" xmlns="http://www.w3.org/2000/svg" width="28.949" height="28.949" viewBox="0 0 28.949 28.949">
  <path id="Path_1139" data-name="Path 1139" d="M11.158,0H2.111A2.113,2.113,0,0,0,0,2.111V7.539A2.113,2.113,0,0,0,2.111,9.65h9.047a2.113,2.113,0,0,0,2.111-2.111V2.111A2.113,2.113,0,0,0,11.158,0Zm0,0" fill="#fff"/>
  <path id="Path_1140" data-name="Path 1140" d="M11.158,213.332H2.111A2.113,2.113,0,0,0,0,215.443v12.665a2.113,2.113,0,0,0,2.111,2.111h9.047a2.113,2.113,0,0,0,2.111-2.111V215.443A2.113,2.113,0,0,0,11.158,213.332Zm0,0" transform="translate(0 -201.27)" fill="#fff"/>
  <path id="Path_1141" data-name="Path 1141" d="M288.49,341.332h-9.047a2.113,2.113,0,0,0-2.111,2.111v5.428a2.113,2.113,0,0,0,2.111,2.111h9.047a2.113,2.113,0,0,0,2.111-2.111v-5.428A2.113,2.113,0,0,0,288.49,341.332Zm0,0" transform="translate(-261.651 -322.032)" fill="#fff"/>
  <path id="Path_1142" data-name="Path 1142" d="M288.49,0h-9.047a2.113,2.113,0,0,0-2.111,2.111V14.776a2.113,2.113,0,0,0,2.111,2.111h9.047a2.113,2.113,0,0,0,2.111-2.111V2.111A2.113,2.113,0,0,0,288.49,0Zm0,0" transform="translate(-261.651)" fill="#fff"/>
</svg>
