<svg xmlns="http://www.w3.org/2000/svg" width="86.026" height="81.685" viewBox="0 0 86.026 81.685">
  <g id="Group_964" data-name="Group 964" transform="translate(-299.748 297.115)">
    <g id="Group_961" data-name="Group 961" transform="translate(299.748 -297.1)">
      <path id="Path_1197" data-name="Path 1197" d="M342.761-215.423l-35.02-35.02a27.365,27.365,0,0,1,0-38.656,27.364,27.364,0,0,1,38.657,0l33.276,33.276-7.273,7.273-33.276-33.276a17.067,17.067,0,0,0-24.11,0,17.067,17.067,0,0,0,0,24.11L350.034-222.7Z" transform="translate(-299.748 297.092)" fill="#27b8d6"/>
    </g>
    <g id="Group_962" data-name="Group 962" transform="translate(335.487 -297.1)">
      <path id="Path_1198" data-name="Path 1198" d="M360.888-215.423l-7.274-7.274,35.02-35.019a17.067,17.067,0,0,0,0-24.11,17.067,17.067,0,0,0-24.11,0l-3.637,3.637-7.274-7.273,3.637-3.637a27.364,27.364,0,0,1,38.657,0,27.365,27.365,0,0,1,0,38.656Z" transform="translate(-353.614 297.092)" fill="#d15253"/>
    </g>
    <g id="Group_963" data-name="Group 963" transform="translate(323.909 -297.115)">
      <path id="Path_1199" data-name="Path 1199" d="M357.588-275.624l-6.209-6.21a16.97,16.97,0,0,0-14.031-4.879l-1.184-10.218a27.2,27.2,0,0,1,22.489,7.824l6.21,6.209Z" transform="translate(-336.163 297.115)" fill="#27b8d6"/>
    </g>
  </g>
</svg>
