<svg xmlns="http://www.w3.org/2000/svg" width="28.444" height="15" viewBox="0 0 28.444 15">
  <g id="eye" transform="translate(0 -121)">
    <g id="Group_923" data-name="Group 923" transform="translate(-0.001 121)">
      <g id="Group_922" data-name="Group 922">
        <path id="Path_1169" data-name="Path 1169" d="M28.232,127.944c-.254-.283-6.361-6.944-14.01-6.944S.466,127.661.212,127.944a.833.833,0,0,0,0,1.112c.254.283,6.361,6.944,14.01,6.944s13.756-6.661,14.01-6.944A.834.834,0,0,0,28.232,127.944Zm-14.01,6.389a5.833,5.833,0,1,1,5.833-5.833A5.84,5.84,0,0,1,14.222,134.333Z" transform="translate(0.001 -121)" fill="#55697b"/>
      </g>
    </g>
    <g id="Group_925" data-name="Group 925" transform="translate(10.055 124.333)">
      <g id="Group_924" data-name="Group 924">
        <path id="Path_1170" data-name="Path 1170" d="M186,183.5a2.492,2.492,0,0,1,1.049-2.029,4.113,4.113,0,0,0-1.883-.471,4.167,4.167,0,1,0,4.1,4.869A2.486,2.486,0,0,1,186,183.5Z" transform="translate(-181 -181)" fill="#55697b"/>
      </g>
    </g>
  </g>
</svg>
