<svg xmlns="http://www.w3.org/2000/svg" xmlns:xlink="http://www.w3.org/1999/xlink" width="159.329" height="43.887" viewBox="0 0 159.329 43.887">
  <defs>
    <linearGradient id="linear-gradient" x1="0.321" y1="0.431" x2="3.709" y2="1.738" gradientUnits="objectBoundingBox">
      <stop offset="0" stop-color="#fff"/>
      <stop offset="0.838" stop-opacity="0.031"/>
    </linearGradient>
    <linearGradient id="linear-gradient-2" x1="0.211" y1="0.373" x2="3.693" y2="1.906" gradientUnits="objectBoundingBox">
      <stop offset="0" stop-color="#fff"/>
      <stop offset="0.836" stop-opacity="0.031"/>
    </linearGradient>
    <linearGradient id="linear-gradient-3" x1="-0.225" y1="1.663" x2="0.428" y2="0.669" gradientUnits="objectBoundingBox">
      <stop offset="0"/>
      <stop offset="1" stop-color="#fff"/>
    </linearGradient>
  </defs>
  <g id="Group_841" data-name="Group 841" transform="translate(-324.893 521.91)">
    <g id="Group_838" data-name="Group 838" transform="translate(324.893 -521.91)">
      <g id="Group_834" data-name="Group 834" transform="translate(0 0.009)">
        <path id="Path_1107" data-name="Path 1107" d="M348-478.011l-18.815-18.814a14.7,14.7,0,0,1,0-20.768,14.7,14.7,0,0,1,20.768,0l17.877,17.878-3.908,3.907-17.877-17.877a9.169,9.169,0,0,0-12.953,0,9.169,9.169,0,0,0,0,12.953l18.814,18.815Z" transform="translate(-324.894 521.888)" fill="#fff"/>
      </g>
      <rect id="Rectangle_260" data-name="Rectangle 260" width="5.526" height="12.384" transform="matrix(0.707, -0.707, 0.707, 0.707, 30.276, 17.331)" fill="url(#linear-gradient)"/>
      <rect id="Rectangle_261" data-name="Rectangle 261" width="5.526" height="12.384" transform="matrix(0.707, -0.707, 0.707, 0.707, 13.974, 34.738)" fill="url(#linear-gradient-2)"/>
      <g id="Group_835" data-name="Group 835" transform="translate(19.201 0.009)">
        <path id="Path_1108" data-name="Path 1108" d="M377.26-478.011l-3.908-3.908,18.814-18.815a9.169,9.169,0,0,0,0-12.953,9.168,9.168,0,0,0-12.953,0l-1.954,1.954-3.908-3.908,1.954-1.954a14.7,14.7,0,0,1,20.768,0,14.7,14.7,0,0,1,0,20.768Z" transform="translate(-373.352 521.888)" fill="#fff"/>
      </g>
      <path id="Path_1109" data-name="Path 1109" d="M395.685-520.857l-1.583,5.333a9.184,9.184,0,0,0-9.61,1.2l-3.57-4.219A14.723,14.723,0,0,1,395.685-520.857Z" transform="translate(-358.721 521.897)" fill="url(#linear-gradient-3)"/>
      <g id="Group_836" data-name="Group 836" transform="translate(19.2 1.04)">
        <path id="Path_1110" data-name="Path 1110" d="M377.259-506.637l-3.91-3.907L375.3-512.5c.337-.337.688-.655,1.047-.951l3.57,4.219a9.444,9.444,0,0,0-.707.638Z" transform="translate(-373.349 515.761)" fill="#fff"/>
        <path id="Path_1111" data-name="Path 1111" d="M396.072-495.255l-18.814,18.816-3.91-3.91,18.816-18.814a9.172,9.172,0,0,0,0-12.953,9.094,9.094,0,0,0-2.636-1.837l1.583-5.333a14.616,14.616,0,0,1,4.96,3.263A14.7,14.7,0,0,1,396.072-495.255Z" transform="translate(-373.349 519.285)" fill="#fff"/>
      </g>
      <g id="Group_837" data-name="Group 837" transform="translate(12.981)">
        <path id="Path_1112" data-name="Path 1112" d="M369.163-510.363l-3.336-3.336a9.12,9.12,0,0,0-7.539-2.621l-.636-5.489a14.609,14.609,0,0,1,12.082,4.2l3.336,3.336Z" transform="translate(-357.653 521.91)" fill="#fff"/>
      </g>
    </g>
    <g id="Group_840" data-name="Group 840" transform="translate(377.832 -509.25)">
      <g id="Group_839" data-name="Group 839" transform="translate(0 0)">
        <path id="Path_1113" data-name="Path 1113" d="M470.412-487.07a1.206,1.206,0,0,1,.692.93,1.4,1.4,0,0,1-.329,1.157,1.032,1.032,0,0,1-.76.454,1.765,1.765,0,0,1-.941-.182,5.835,5.835,0,0,0-1.146-.386,5.716,5.716,0,0,0-1.259-.136,5.861,5.861,0,0,0-2.19.386,4.6,4.6,0,0,0-1.645,1.1,4.755,4.755,0,0,0-1.033,1.691,6.323,6.323,0,0,0-.352,2.156,6.618,6.618,0,0,0,.4,2.406,4.688,4.688,0,0,0,1.1,1.7,4.426,4.426,0,0,0,1.657,1.01,6.282,6.282,0,0,0,2.065.329,6.672,6.672,0,0,0,1.225-.113,4.189,4.189,0,0,0,1.18-.408,1.616,1.616,0,0,1,.941-.159,1.188,1.188,0,0,1,.783.477,1.37,1.37,0,0,1,.329,1.169,1.2,1.2,0,0,1-.692.874,8,8,0,0,1-1.214.488,9.213,9.213,0,0,1-1.26.3,8.188,8.188,0,0,1-1.293.1,9.157,9.157,0,0,1-3.1-.522,7.833,7.833,0,0,1-2.61-1.543,7.134,7.134,0,0,1-1.8-2.553,8.93,8.93,0,0,1-.658-3.552,8.456,8.456,0,0,1,.6-3.223,7.488,7.488,0,0,1,1.7-2.553,7.852,7.852,0,0,1,2.6-1.68,8.7,8.7,0,0,1,3.268-.6,8.4,8.4,0,0,1,1.951.227A7.925,7.925,0,0,1,470.412-487.07Z" transform="translate(-458.497 488.75)" fill="#fff"/>
        <path id="Path_1114" data-name="Path 1114" d="M504.63-478.791a1.325,1.325,0,0,1,.976.386,1.351,1.351,0,0,1,.386,1v9.6a1.36,1.36,0,0,1-.386.987,1.3,1.3,0,0,1-.976.4,1.3,1.3,0,0,1-.976-.4,1.359,1.359,0,0,1-.386-.987v-1.112l.5.2a1.277,1.277,0,0,1-.317.715,4.337,4.337,0,0,1-.863.828,5.291,5.291,0,0,1-1.282.693,4.431,4.431,0,0,1-1.6.283,5.188,5.188,0,0,1-2.837-.806,5.661,5.661,0,0,1-2.008-2.224,6.951,6.951,0,0,1-.737-3.257,7,7,0,0,1,.737-3.279,5.729,5.729,0,0,1,1.986-2.224,5,5,0,0,1,2.769-.806,5.259,5.259,0,0,1,1.793.295,5.371,5.371,0,0,1,1.419.749,4.311,4.311,0,0,1,.93.919,1.468,1.468,0,0,1,.329.783l-.817.3v-1.657a1.359,1.359,0,0,1,.386-.987A1.3,1.3,0,0,1,504.63-478.791Zm-4.584,10.1a3.077,3.077,0,0,0,1.747-.5,3.372,3.372,0,0,0,1.169-1.362,4.348,4.348,0,0,0,.42-1.929,4.405,4.405,0,0,0-.42-1.952,3.378,3.378,0,0,0-1.169-1.361,3.079,3.079,0,0,0-1.747-.5,3.04,3.04,0,0,0-1.725.5,3.374,3.374,0,0,0-1.168,1.361,4.4,4.4,0,0,0-.42,1.952,4.342,4.342,0,0,0,.42,1.929,3.368,3.368,0,0,0,1.168,1.362A3.037,3.037,0,0,0,500.046-468.692Z" transform="translate(-480.007 483.217)" fill="#fff"/>
        <path id="Path_1115" data-name="Path 1115" d="M532.884-466.422a1.3,1.3,0,0,1-.976-.4,1.359,1.359,0,0,1-.386-.987v-9.373a1.36,1.36,0,0,1,.386-.987,1.3,1.3,0,0,1,.976-.4,1.3,1.3,0,0,1,.975.4,1.361,1.361,0,0,1,.386.987v2.133l-.159-1.52a3.537,3.537,0,0,1,.647-.964,3.85,3.85,0,0,1,.9-.7,4.08,4.08,0,0,1,1.067-.42,4.845,4.845,0,0,1,1.134-.136,1.738,1.738,0,0,1,1.146.386,1.152,1.152,0,0,1,.465.908,1.346,1.346,0,0,1-.386,1.078,1.267,1.267,0,0,1-.84.329,1.882,1.882,0,0,1-.783-.158,1.94,1.94,0,0,0-.806-.159,1.972,1.972,0,0,0-.829.193,2.27,2.27,0,0,0-.771.6,3.157,3.157,0,0,0-.567,1.01,4.2,4.2,0,0,0-.216,1.418v5.378a1.36,1.36,0,0,1-.386.987A1.3,1.3,0,0,1,532.884-466.422Z" transform="translate(-502.587 483.217)" fill="#fff"/>
        <path id="Path_1116" data-name="Path 1116" d="M563.909-489.96a1.325,1.325,0,0,1,.976.386,1.353,1.353,0,0,1,.386,1v14.025a1.36,1.36,0,0,1-.386.987,1.3,1.3,0,0,1-.976.4,1.3,1.3,0,0,1-.976-.4,1.359,1.359,0,0,1-.386-.987v-1.112l.5.2a1.28,1.28,0,0,1-.317.715,4.327,4.327,0,0,1-.863.828,5.277,5.277,0,0,1-1.282.693,4.429,4.429,0,0,1-1.6.283,5.188,5.188,0,0,1-2.837-.806,5.661,5.661,0,0,1-2.008-2.224,6.952,6.952,0,0,1-.737-3.257,7,7,0,0,1,.737-3.279,5.73,5.73,0,0,1,1.986-2.224,5,5,0,0,1,2.768-.806,5.261,5.261,0,0,1,1.793.295,5.364,5.364,0,0,1,1.418.749,4.3,4.3,0,0,1,.93.919,1.465,1.465,0,0,1,.329.783l-.817.3v-6.082a1.36,1.36,0,0,1,.386-.987A1.3,1.3,0,0,1,563.909-489.96Zm-4.584,14.524a3.076,3.076,0,0,0,1.747-.5,3.371,3.371,0,0,0,1.169-1.362,4.347,4.347,0,0,0,.42-1.929,4.4,4.4,0,0,0-.42-1.952,3.378,3.378,0,0,0-1.169-1.362,3.08,3.08,0,0,0-1.747-.5,3.04,3.04,0,0,0-1.725.5,3.376,3.376,0,0,0-1.169,1.362,4.4,4.4,0,0,0-.42,1.952,4.343,4.343,0,0,0,.42,1.929,3.369,3.369,0,0,0,1.169,1.362A3.037,3.037,0,0,0,559.325-475.436Z" transform="translate(-515.797 489.96)" fill="#fff"/>
        <path id="Path_1117" data-name="Path 1117" d="M591.635-486.056a1.8,1.8,0,0,1-1.089-.25,1.066,1.066,0,0,1-.318-.885v-.431a1.009,1.009,0,0,1,.352-.9,1.945,1.945,0,0,1,1.078-.238,1.852,1.852,0,0,1,1.112.25,1.068,1.068,0,0,1,.318.885v.431a1.026,1.026,0,0,1-.34.9A1.994,1.994,0,0,1,591.635-486.056Zm1.384,12.232a1.361,1.361,0,0,1-.386.987,1.3,1.3,0,0,1-.976.4,1.3,1.3,0,0,1-.976-.4,1.36,1.36,0,0,1-.385-.987V-483.2a1.361,1.361,0,0,1,.385-.987,1.3,1.3,0,0,1,.976-.4,1.3,1.3,0,0,1,.976.4,1.362,1.362,0,0,1,.386.987Z" transform="translate(-538.031 489.234)" fill="#fff"/>
        <path id="Path_1118" data-name="Path 1118" d="M614.8-487.07a1.206,1.206,0,0,1,.692.93,1.4,1.4,0,0,1-.329,1.157,1.034,1.034,0,0,1-.76.454,1.767,1.767,0,0,1-.942-.182,5.826,5.826,0,0,0-1.146-.386,5.711,5.711,0,0,0-1.259-.136,5.858,5.858,0,0,0-2.19.386,4.6,4.6,0,0,0-1.646,1.1,4.765,4.765,0,0,0-1.033,1.691,6.322,6.322,0,0,0-.352,2.156,6.628,6.628,0,0,0,.4,2.406,4.694,4.694,0,0,0,1.1,1.7,4.426,4.426,0,0,0,1.656,1.01,6.286,6.286,0,0,0,2.066.329,6.677,6.677,0,0,0,1.226-.113,4.188,4.188,0,0,0,1.18-.408,1.617,1.617,0,0,1,.942-.159,1.189,1.189,0,0,1,.783.477,1.37,1.37,0,0,1,.329,1.169,1.2,1.2,0,0,1-.692.874,7.98,7.98,0,0,1-1.214.488,9.211,9.211,0,0,1-1.26.3,8.18,8.18,0,0,1-1.293.1,9.159,9.159,0,0,1-3.1-.522,7.842,7.842,0,0,1-2.61-1.543,7.13,7.13,0,0,1-1.8-2.553,8.929,8.929,0,0,1-.658-3.552,8.458,8.458,0,0,1,.6-3.223,7.489,7.489,0,0,1,1.7-2.553,7.857,7.857,0,0,1,2.6-1.68,8.7,8.7,0,0,1,3.268-.6,8.393,8.393,0,0,1,1.951.227A7.924,7.924,0,0,1,614.8-487.07Z" transform="translate(-545.674 488.75)" fill="#fff"/>
        <path id="Path_1119" data-name="Path 1119" d="M649.018-478.791a1.325,1.325,0,0,1,.976.386,1.351,1.351,0,0,1,.386,1v9.6a1.36,1.36,0,0,1-.386.987,1.3,1.3,0,0,1-.976.4,1.3,1.3,0,0,1-.976-.4,1.358,1.358,0,0,1-.386-.987v-1.112l.5.2a1.278,1.278,0,0,1-.318.715,4.329,4.329,0,0,1-.863.828,5.292,5.292,0,0,1-1.282.693,4.431,4.431,0,0,1-1.6.283,5.186,5.186,0,0,1-2.837-.806,5.658,5.658,0,0,1-2.008-2.224,6.955,6.955,0,0,1-.737-3.257,7.007,7.007,0,0,1,.737-3.279,5.726,5.726,0,0,1,1.986-2.224,5,5,0,0,1,2.768-.806,5.259,5.259,0,0,1,1.793.295,5.357,5.357,0,0,1,1.418.749,4.305,4.305,0,0,1,.931.919,1.464,1.464,0,0,1,.329.783l-.817.3v-1.657a1.359,1.359,0,0,1,.386-.987A1.3,1.3,0,0,1,649.018-478.791Zm-4.584,10.1a3.076,3.076,0,0,0,1.747-.5,3.365,3.365,0,0,0,1.169-1.362,4.341,4.341,0,0,0,.42-1.929,4.4,4.4,0,0,0-.42-1.952,3.371,3.371,0,0,0-1.169-1.361,3.078,3.078,0,0,0-1.747-.5,3.038,3.038,0,0,0-1.724.5,3.371,3.371,0,0,0-1.169,1.361,4.4,4.4,0,0,0-.42,1.952,4.342,4.342,0,0,0,.42,1.929,3.365,3.365,0,0,0,1.169,1.362A3.035,3.035,0,0,0,644.434-468.692Z" transform="translate(-567.183 483.217)" fill="#fff"/>
        <path id="Path_1120" data-name="Path 1120" d="M677.272-466.422a1.3,1.3,0,0,1-.976-.4,1.358,1.358,0,0,1-.386-.987v-9.373a1.359,1.359,0,0,1,.386-.987,1.3,1.3,0,0,1,.976-.4,1.3,1.3,0,0,1,.976.4,1.361,1.361,0,0,1,.386.987v2.133l-.159-1.52a3.527,3.527,0,0,1,.647-.964,3.839,3.839,0,0,1,.9-.7,4.085,4.085,0,0,1,1.067-.42,4.846,4.846,0,0,1,1.135-.136,1.738,1.738,0,0,1,1.146.386,1.151,1.151,0,0,1,.465.908,1.346,1.346,0,0,1-.386,1.078,1.267,1.267,0,0,1-.84.329,1.88,1.88,0,0,1-.783-.158,1.943,1.943,0,0,0-.806-.159,1.97,1.97,0,0,0-.828.193,2.274,2.274,0,0,0-.772.6,3.156,3.156,0,0,0-.567,1.01,4.192,4.192,0,0,0-.216,1.418v5.378a1.36,1.36,0,0,1-.386.987A1.3,1.3,0,0,1,677.272-466.422Z" transform="translate(-589.763 483.217)" fill="#fff"/>
        <path id="Path_1121" data-name="Path 1121" d="M704.076-466.2a6.662,6.662,0,0,1-3.347-.806,5.556,5.556,0,0,1-2.178-2.19,6.388,6.388,0,0,1-.76-3.132,6.881,6.881,0,0,1,.828-3.483,5.856,5.856,0,0,1,2.167-2.213,5.6,5.6,0,0,1,2.837-.771,5.158,5.158,0,0,1,2.19.477,5.989,5.989,0,0,1,1.827,1.3,6.342,6.342,0,0,1,1.259,1.918,5.829,5.829,0,0,1,.466,2.315,1.167,1.167,0,0,1-.431.885,1.444,1.444,0,0,1-.953.341H699.31l-.681-2.27h8.328l-.5.454v-.613a2.072,2.072,0,0,0-.465-1.18,3.048,3.048,0,0,0-1.044-.829,2.978,2.978,0,0,0-1.327-.306,4.3,4.3,0,0,0-1.271.181,2.434,2.434,0,0,0-1.021.613,2.964,2.964,0,0,0-.681,1.157,5.726,5.726,0,0,0-.25,1.838,3.968,3.968,0,0,0,.511,2.076,3.473,3.473,0,0,0,1.316,1.294,3.5,3.5,0,0,0,1.713.443,5.3,5.3,0,0,0,1.339-.136,3.015,3.015,0,0,0,.806-.329q.307-.193.556-.329a1.728,1.728,0,0,1,.771-.2,1.1,1.1,0,0,1,.828.34,1.107,1.107,0,0,1,.329.794,1.417,1.417,0,0,1-.635,1.112,5.272,5.272,0,0,1-1.657.874A6.6,6.6,0,0,1,704.076-466.2Z" transform="translate(-602.973 483.217)" fill="#fff"/>
      </g>
    </g>
  </g>
</svg>
