<svg id="Group_833" data-name="Group 833" xmlns="http://www.w3.org/2000/svg" width="27.939" height="28.691" viewBox="0 0 27.939 28.691">
  <g id="Group_832" data-name="Group 832" transform="translate(0)">
    <path id="Path_1106" data-name="Path 1106" d="M34.166,17.49l-2.637-2.062a10.384,10.384,0,0,0,.062-1.083,10.07,10.07,0,0,0-.062-1.083l2.64-2.063a1.293,1.293,0,0,0,.312-1.647L31.738,4.806a1.271,1.271,0,0,0-1.586-.57L27.04,5.485A10.669,10.669,0,0,0,25.171,4.4L24.7,1.1A1.27,1.27,0,0,0,23.43,0h-5.5a1.266,1.266,0,0,0-1.265,1.09L16.192,4.4a11,11,0,0,0-1.865,1.084l-3.12-1.253A1.3,1.3,0,0,0,9.632,4.8L6.886,9.546A1.285,1.285,0,0,0,7.2,11.2l2.637,2.062a9.459,9.459,0,0,0,0,2.165l-2.64,2.063a1.293,1.293,0,0,0-.311,1.647l2.742,4.745a1.269,1.269,0,0,0,1.586.57l3.112-1.249a10.763,10.763,0,0,0,1.867,1.084l.473,3.3a1.269,1.269,0,0,0,1.267,1.1h5.5A1.267,1.267,0,0,0,24.7,27.6l.475-3.311A11.05,11.05,0,0,0,27.037,23.2l3.12,1.253a1.285,1.285,0,0,0,.469.088,1.262,1.262,0,0,0,1.106-.648l2.754-4.77A1.29,1.29,0,0,0,34.166,17.49ZM20.681,19.127a4.782,4.782,0,1,1,4.782-4.782A4.787,4.787,0,0,1,20.681,19.127Z" transform="translate(-6.71)" fill="#fff"/>
  </g>
</svg>
