<svg id="Group_848" data-name="Group 848" xmlns="http://www.w3.org/2000/svg" width="28.742" height="28.741" viewBox="0 0 28.742 28.741">
  <path id="Path_1128" data-name="Path 1128" d="M289.6,209.805H278.221a.9.9,0,1,1,0-1.8H289.6a.9.9,0,0,1,0,1.8Z" transform="translate(-261.755 -196.333)" fill="#fff"/>
  <path id="Path_1129" data-name="Path 1129" d="M400.889,138.753a.9.9,0,0,1-.635-1.534l3.856-3.856-3.856-3.856a.9.9,0,1,1,1.271-1.27l4.491,4.491a.9.9,0,0,1,0,1.27l-4.491,4.491A.892.892,0,0,1,400.889,138.753Z" transform="translate(-377.538 -120.791)" fill="#fff"/>
  <path id="Path_1130" data-name="Path 1130" d="M9.58,28.757a2.469,2.469,0,0,1-.743-.111l-7.207-2.4A2.417,2.417,0,0,1,0,23.967V2.411A2.4,2.4,0,0,1,2.4.016a2.469,2.469,0,0,1,.742.111l7.207,2.4a2.417,2.417,0,0,1,1.631,2.278V26.361A2.4,2.4,0,0,1,9.58,28.757ZM2.4,1.812a.6.6,0,0,0-.6.6V23.967a.622.622,0,0,0,.416.577l7.173,2.39a.65.65,0,0,0,.2.026.6.6,0,0,0,.6-.6V4.806a.622.622,0,0,0-.416-.577L2.59,1.839A.65.65,0,0,0,2.4,1.812Z" transform="translate(0 -0.016)" fill="#fff"/>
  <path id="Path_1131" data-name="Path 1131" d="M43.432,9.6a.9.9,0,0,1-.9-.9V3.309a1.5,1.5,0,0,0-1.5-1.5H27.565a.9.9,0,1,1,0-1.8H41.037A3.3,3.3,0,0,1,44.33,3.309V8.7A.9.9,0,0,1,43.432,9.6Z" transform="translate(-25.17 -0.016)" fill="#fff"/>
  <path id="Path_1132" data-name="Path 1132" d="M187.014,286.919h-4.79a.9.9,0,1,1,0-1.8h4.79a1.5,1.5,0,0,0,1.5-1.5v-5.389a.9.9,0,0,1,1.8,0v5.389A3.3,3.3,0,0,1,187.014,286.919Z" transform="translate(-171.147 -261.771)" fill="#fff"/>
</svg>
