<svg xmlns="http://www.w3.org/2000/svg" width="19.125" height="24" viewBox="0 0 19.125 24">
  <g id="padlock" transform="translate(-52)">
    <g id="Group_919" data-name="Group 919" transform="translate(52)">
      <g id="Group_918" data-name="Group 918">
        <path id="Path_1167" data-name="Path 1167" d="M68.312,8.812H66.623V4.958a5.064,5.064,0,0,0-10.125,0V8.812H54.812A2.816,2.816,0,0,0,52,11.625v9.562A2.816,2.816,0,0,0,54.812,24h13.5a2.816,2.816,0,0,0,2.812-2.812V11.625A2.816,2.816,0,0,0,68.312,8.812ZM58.373,4.958a3.189,3.189,0,0,1,6.375,0V8.812H58.373ZM69.25,21.187a.939.939,0,0,1-.937.937h-13.5a.939.939,0,0,1-.937-.937V11.625a.939.939,0,0,1,.937-.937h13.5a.939.939,0,0,1,.937.937Z" transform="translate(-52)" fill="#55697b"/>
      </g>
    </g>
    <g id="Group_921" data-name="Group 921" transform="translate(59.828 13.406)">
      <g id="Group_920" data-name="Group 920">
        <path id="Path_1168" data-name="Path 1168" d="M220.734,286a1.734,1.734,0,0,0-.939,3.192v2.058a.937.937,0,0,0,1.875,0v-2.056a1.734,1.734,0,0,0-.936-3.194Z" transform="translate(-219 -286)" fill="#55697b"/>
      </g>
    </g>
  </g>
</svg>
