<svg xmlns="http://www.w3.org/2000/svg" width="27.655" height="27.655" viewBox="0 0 27.655 27.655">
  <path id="Path_1133" data-name="Path 1133" d="M13.828,0A13.828,13.828,0,1,0,27.655,13.828,13.843,13.843,0,0,0,13.828,0Zm0,21.894a1.152,1.152,0,1,1,1.152-1.152A1.153,1.153,0,0,1,13.828,21.894Zm1.824-7.326a1.157,1.157,0,0,0-.672,1.048v.517a1.152,1.152,0,1,1-2.3,0v-.517a3.472,3.472,0,0,1,2.011-3.141,3.766,3.766,0,0,0,2.022-2.679,2.881,2.881,0,0,0-5.761,0,1.152,1.152,0,1,1-2.3,0,5.185,5.185,0,1,1,10.371,0A6,6,0,0,1,15.652,14.567Z" fill="#fff"/>
</svg>
