<svg xmlns="http://www.w3.org/2000/svg" width="29.836" height="21.548" viewBox="0 0 29.836 21.548">
  <g id="Group_842" data-name="Group 842" transform="translate(0 -53)">
    <path id="Path_1122" data-name="Path 1122" d="M28.592,178.154H1.243a1.243,1.243,0,1,1,0-2.486H28.592a1.243,1.243,0,1,1,0,2.486Z" transform="translate(0 -113.137)" fill="#fff"/>
    <path id="Path_1123" data-name="Path 1123" d="M28.592,55.486H1.243a1.243,1.243,0,1,1,0-2.486H28.592a1.243,1.243,0,1,1,0,2.486Z" fill="#fff"/>
    <path id="Path_1124" data-name="Path 1124" d="M28.592,300.818H1.243a1.243,1.243,0,1,1,0-2.486H28.592a1.243,1.243,0,1,1,0,2.486Z" transform="translate(0 -226.27)" fill="#fff"/>
  </g>
</svg>
