<svg id="user" xmlns="http://www.w3.org/2000/svg" width="18.518" height="22.196" viewBox="0 0 18.518 22.196">
  <path id="Path_1165" data-name="Path 1165" d="M92.377,10.692a5.173,5.173,0,0,0,3.78-1.566,5.172,5.172,0,0,0,1.566-3.78,5.173,5.173,0,0,0-1.566-3.78,5.345,5.345,0,0,0-7.56,0,5.173,5.173,0,0,0-1.566,3.78A5.173,5.173,0,0,0,88.6,9.126,5.174,5.174,0,0,0,92.377,10.692Zm0,0" transform="translate(-83.258 0)" fill="#55697b"/>
  <path id="Path_1166" data-name="Path 1166" d="M18.473,253.662a13.2,13.2,0,0,0-.18-1.4,11.048,11.048,0,0,0-.345-1.41,6.964,6.964,0,0,0-.58-1.315,4.963,4.963,0,0,0-.874-1.139,3.854,3.854,0,0,0-1.256-.789,4.34,4.34,0,0,0-1.6-.29,1.627,1.627,0,0,0-.869.368c-.26.17-.565.366-.905.584a5.186,5.186,0,0,1-1.171.516,4.547,4.547,0,0,1-2.865,0,5.174,5.174,0,0,1-1.17-.516c-.337-.215-.642-.412-.906-.584a1.625,1.625,0,0,0-.869-.368,4.334,4.334,0,0,0-1.6.29,3.85,3.85,0,0,0-1.256.789,4.963,4.963,0,0,0-.874,1.139,6.977,6.977,0,0,0-.58,1.315,11.076,11.076,0,0,0-.345,1.41,13.158,13.158,0,0,0-.18,1.4c-.029.425-.044.865-.044,1.311a3.686,3.686,0,0,0,1.095,2.788,3.94,3.94,0,0,0,2.821,1.029H14.6a3.94,3.94,0,0,0,2.82-1.029,3.684,3.684,0,0,0,1.095-2.788C18.518,254.526,18.5,254.085,18.473,253.662Zm0,0" transform="translate(0 -236.595)" fill="#55697b"/>
</svg>
